<svg xmlns="http://www.w3.org/2000/svg" viewBox="0 0 64 64" fill="none">
  <defs>
    <linearGradient id="grad1" x1="0%" y1="0%" x2="100%" y2="100%">
      <stop offset="0%" style="stop-color:#6366f1;stop-opacity:1" />
      <stop offset="100%" style="stop-color:#06b6d4;stop-opacity:1" />
    </linearGradient>
  </defs>
  <circle cx="32" cy="32" r="30" fill="url(#grad1)"/>
  <path d="M32 14c-9.9 0-18 8.1-18 18s8.1 18 18 18 18-8.1 18-18-8.1-18-18-18zm0 32c-7.7 0-14-6.3-14-14s6.3-14 14-14 14 6.3 14 14-6.3 14-14 14z" fill="white" opacity="0.3"/>
  <circle cx="32" cy="32" r="10" fill="white"/>
  <g stroke="white" stroke-width="3" stroke-linecap="round">
    <line x1="32" y1="6" x2="32" y2="12"/>
    <line x1="32" y1="52" x2="32" y2="58"/>
    <line x1="6" y1="32" x2="12" y2="32"/>
    <line x1="52" y1="32" x2="58" y2="32"/>
    <line x1="13.6" y1="13.6" x2="17.8" y2="17.8"/>
    <line x1="46.2" y1="46.2" x2="50.4" y2="50.4"/>
    <line x1="13.6" y1="50.4" x2="17.8" y2="46.2"/>
    <line x1="46.2" y1="17.8" x2="50.4" y2="13.6"/>
  </g>
</svg>
